<svg version="1.1" xmlns="http://www.w3.org/2000/svg" xmlns:xlink="http://www.w3.org/1999/xlink" width="394" height="907"><defs/><g><g/><g/><g/><g/><g/><g/><g/><g/><g/><g/><g/><g/><g/><g/><g/><g/><g/><g/><g/><g><rect fill="white" stroke="none" x="0" y="0" width="394" height="907"/></g><g/><g><path fill="none" stroke="black" paint-order="fill stroke markers" d=" M 62.28240781541016 55.049635120999994 L 62.28240781541016 907.3962882556265" stroke-miterlimit="10" stroke-width="1.3612669416666667" stroke-dasharray="12.565541,5.445067766666667"/><path fill="none" stroke="black" paint-order="fill stroke markers" d=" M 347.0240259985482 55.049635120999994 L 347.0240259985482 907.3962882556265" stroke-miterlimit="10" stroke-width="1.3612669416666667" stroke-dasharray="12.565541,5.445067766666667"/></g><g><path fill="none" stroke="none"/><g><path fill="white" stroke="black" paint-order="fill stroke markers" d=" M 25.818561783249997 10.944586211000003 L 98.74625384757033 10.944586211000003 L 98.74625384757033 55.049635120999994 L 25.818561783249997 55.049635120999994 L 25.818561783249997 10.944586211000003 Z" stroke-miterlimit="10" stroke-width="2.613632528" stroke-dasharray=""/></g><g><g/><text fill="black" stroke="none" font-family="sans-serif" font-size="11pt" font-style="normal" font-weight="normal" text-decoration="normal" x="43.542257363750004" y="38.71443182099999" text-anchor="start" dominant-baseline="alphabetic">Client</text></g><path fill="none" stroke="none"/><g><path fill="white" stroke="black" paint-order="fill stroke markers" d=" M 307.7112267193177 10.944586211000003 L 386.33682527777864 10.944586211000003 L 386.33682527777864 55.049635120999994 L 307.7112267193177 55.049635120999994 L 307.7112267193177 10.944586211000003 Z" stroke-miterlimit="10" stroke-width="2.613632528" stroke-dasharray=""/></g><g><g/><text fill="black" stroke="none" font-family="sans-serif" font-size="11pt" font-style="normal" font-weight="normal" text-decoration="normal" x="325.43492229981774" y="38.71443182099999" text-anchor="start" dominant-baseline="alphabetic">Server</text></g></g><g><g><g><rect fill="white" stroke="none" x="108.30888581383464" y="87.72004172099999" width="192.68866218628906" height="21.23576429"/></g><g><rect fill="white" stroke="none" x="108.30888581383464" y="104.05524502099999" width="183.08230842652344" height="21.23576429"/></g><text fill="black" stroke="none" font-family="sans-serif" font-size="11pt" font-style="normal" font-weight="normal" text-decoration="normal" x="110.75916630883464" y="102.421724691" text-anchor="start" dominant-baseline="alphabetic">GET /~rlaw/cs355/ HTTP/1.1</text><text fill="black" stroke="none" font-family="sans-serif" font-size="11pt" font-style="normal" font-weight="normal" text-decoration="normal" x="110.75916630883464" y="118.756927991" text-anchor="start" dominant-baseline="alphabetic">Host: venus.cs.qc.cuny.edu</text></g><g><path fill="none" stroke="black" paint-order="fill stroke markers" d=" M 62.28240781541016 119.728930185596 L 344.3014921152149 152.08696134319206" stroke-miterlimit="10" stroke-width="1.3612669416666667" stroke-dasharray=""/><g transform="translate(347.0240259985482,152.399336785596) rotate(6.54532535092245,0,0) translate(-347.0240259985482,-152.399336785596)"><path fill="black" stroke="none" paint-order="stroke fill markers" d=" M 333.41135658188153 145.59300207726267 L 347.0240259985482 152.399336785596 L 333.41135658188153 159.20567149392934 Z"/><g transform="rotate(-6.54532535092245,0,0)"/></g></g><g><g><rect fill="white" stroke="none" x="111.00396180260417" y="176.902141735596" width="121.41452278199219" height="21.23576429"/></g><g><rect fill="white" stroke="none" x="111.00396180260417" y="193.23734503559598" width="187.29851020875" height="21.23576429"/></g><g><rect fill="white" stroke="none" x="111.00396180260417" y="209.57254833559597" width="138.572680130625" height="21.23576429"/></g><g><rect fill="white" stroke="none" x="111.00396180260417" y="225.90775163559596" width="113.25418342652344" height="21.23576429"/></g><text fill="black" stroke="none" font-family="sans-serif" font-size="11pt" font-style="normal" font-weight="normal" text-decoration="normal" x="113.45424229760417" y="191.60382470559597" text-anchor="start" dominant-baseline="alphabetic">HTTP/1.1 200 OK</text><text fill="black" stroke="none" font-family="sans-serif" font-size="11pt" font-style="normal" font-weight="normal" text-decoration="normal" x="113.45424229760417" y="207.93902800559596" text-anchor="start" dominant-baseline="alphabetic">ETag: "578-58049612f21c0"</text><text fill="black" stroke="none" font-family="sans-serif" font-size="11pt" font-style="normal" font-weight="normal" text-decoration="normal" x="113.45424229760417" y="224.27423130559595" text-anchor="start" dominant-baseline="alphabetic">Content-Length: 678</text><text fill="black" stroke="none" font-family="sans-serif" font-size="11pt" font-style="normal" font-weight="normal" text-decoration="normal" x="113.45424229760417" y="240.60943460559594" text-anchor="start" dominant-baseline="alphabetic">&lt;!DOCTYPE&gt;....</text></g><g><path fill="none" stroke="black" paint-order="fill stroke markers" d=" M 347.0240259985482 241.2722117949651 L 65.0049416987435 273.63024295256116" stroke-miterlimit="10" stroke-width="1.3612669416666667" stroke-dasharray=""/><g transform="translate(62.28240781541016,273.9426183949651) rotate(-6.54532535092245,0,0) translate(-62.28240781541016,-273.9426183949651)"><path fill="black" stroke="none" paint-order="stroke fill markers" d=" M 75.89507723207683 267.13628368663177 L 62.28240781541016 273.9426183949651 L 75.89507723207683 280.74895310329845 Z"/><g transform="rotate(6.54532535092245,0,0)"/></g></g><path fill="white" stroke="black" paint-order="fill stroke markers" d=" M 8.16760165 313.1471063149651 L 8.167601650000002 313.1471063149651 A 14.70168297 14.70168297 0 0 1 22.869284620000002 298.4454233449651 L 101.6955310108203 298.4454233449651 L 101.6955310108203 298.4454233449651 A 14.70168297 14.70168297 0 0 1 116.39721398082031 313.1471063149651 L 116.39721398082031 337.6499112649651 L 116.39721398082031 337.6499112649651 A 14.70168297 14.70168297 0 0 1 101.6955310108203 352.3515942349651 L 22.869284620000002 352.3515942349651 L 22.869284620000002 352.3515942349651 A 14.70168297 14.70168297 0 0 1 8.167601650000002 337.6499112649651 L 8.16760165 313.1471063149651" stroke-miterlimit="10" stroke-width="1.3612669416666667" stroke-dasharray=""/><g><text fill="black" stroke="none" font-family="sans-serif" font-size="11pt" font-style="normal" font-weight="normal" text-decoration="normal" x="31.036886270000004" y="321.31470796496507" text-anchor="start" dominant-baseline="alphabetic">Renders</text><text fill="black" stroke="none" font-family="sans-serif" font-size="11pt" font-style="normal" font-weight="normal" text-decoration="normal" x="31.036886270000004" y="337.64991126496506" text-anchor="start" dominant-baseline="alphabetic">Webpage</text></g><g><g><rect fill="white" stroke="none" x="81.61239838707682" y="376.85439918496513" width="246.0816370398047" height="21.23576429"/></g><g><rect fill="white" stroke="none" x="81.61239838707682" y="393.1896024849651" width="183.08230842652344" height="21.23576429"/></g><text fill="black" stroke="none" font-family="sans-serif" font-size="11pt" font-style="normal" font-weight="normal" text-decoration="normal" x="84.06267888207682" y="391.5560821549651" text-anchor="start" dominant-baseline="alphabetic">GET /images/image00.png HTTP/1.1</text><text fill="black" stroke="none" font-family="sans-serif" font-size="11pt" font-style="normal" font-weight="normal" text-decoration="normal" x="84.06267888207682" y="407.8912854549651" text-anchor="start" dominant-baseline="alphabetic">Host: venus.cs.qc.cuny.edu</text></g><g><path fill="none" stroke="black" paint-order="fill stroke markers" d=" M 62.28240781541016 411.92636323573345 L 344.3014921152149 444.2843943933295" stroke-miterlimit="10" stroke-width="1.3612669416666667" stroke-dasharray=""/><g transform="translate(347.0240259985482,444.5967698357334) rotate(6.54532535092245,0,0) translate(-347.0240259985482,-444.5967698357334)"><path fill="black" stroke="none" paint-order="stroke fill markers" d=" M 333.41135658188153 437.7904351274001 L 347.0240259985482 444.5967698357334 L 333.41135658188153 451.40310454406676 Z"/><g transform="rotate(-6.54532535092245,0,0)"/></g></g><g><g><rect fill="white" stroke="none" x="81.61239838707682" y="469.09957478573347" width="246.0816370398047" height="21.23576429"/></g><g><rect fill="white" stroke="none" x="81.61239838707682" y="485.43477808573346" width="183.08230842652344" height="21.23576429"/></g><text fill="black" stroke="none" font-family="sans-serif" font-size="11pt" font-style="normal" font-weight="normal" text-decoration="normal" x="84.06267888207682" y="483.80125775573345" text-anchor="start" dominant-baseline="alphabetic">GET /images/image01.png HTTP/1.1</text><text fill="black" stroke="none" font-family="sans-serif" font-size="11pt" font-style="normal" font-weight="normal" text-decoration="normal" x="84.06267888207682" y="500.13646105573343" text-anchor="start" dominant-baseline="alphabetic">Host: venus.cs.qc.cuny.edu</text></g><g><path fill="none" stroke="black" paint-order="fill stroke markers" d=" M 62.28240781541016 504.1715388365018 L 344.3014921152149 536.5295699940978" stroke-miterlimit="10" stroke-width="1.3612669416666667" stroke-dasharray=""/><g transform="translate(347.0240259985482,536.8419454365018) rotate(6.54532535092245,0,0) translate(-347.0240259985482,-536.8419454365018)"><path fill="black" stroke="none" paint-order="stroke fill markers" d=" M 333.41135658188153 530.0356107281684 L 347.0240259985482 536.8419454365018 L 333.41135658188153 543.6482801448351 Z"/><g transform="rotate(-6.54532535092245,0,0)"/></g></g><g><g><rect fill="white" stroke="none" x="143.9459555159831" y="561.3447503865018" width="121.41452278199219" height="21.23576429"/></g><g><rect fill="white" stroke="none" x="143.9459555159831" y="577.6799536865018" width="85.58056892457031" height="21.23576429"/></g><text fill="black" stroke="none" font-family="sans-serif" font-size="11pt" font-style="normal" font-weight="normal" text-decoration="normal" x="146.39623601098307" y="576.0464333565018" text-anchor="start" dominant-baseline="alphabetic">HTTP/1.1 200 OK</text><text fill="black" stroke="none" font-family="sans-serif" font-size="11pt" font-style="normal" font-weight="normal" text-decoration="normal" x="146.39623601098307" y="592.3816366565018" text-anchor="start" dominant-baseline="alphabetic">[image data]</text></g><g><path fill="none" stroke="black" paint-order="fill stroke markers" d=" M 347.0240259985482 589.2647474391902 L 65.0049416987435 621.6227785967861" stroke-miterlimit="10" stroke-width="1.3612669416666667" stroke-dasharray=""/><g transform="translate(62.28240781541016,621.9351540391901) rotate(-6.54532535092245,0,0) translate(-62.28240781541016,-621.9351540391901)"><path fill="black" stroke="none" paint-order="stroke fill markers" d=" M 75.89507723207683 615.1288193308568 L 62.28240781541016 621.9351540391901 L 75.89507723207683 628.7414887475235 Z"/><g transform="rotate(6.54532535092245,0,0)"/></g></g><path fill="white" stroke="black" paint-order="fill stroke markers" d=" M 8.16760165 661.1396419591902 L 8.167601650000002 661.1396419591902 A 14.70168297 14.70168297 0 0 1 22.869284620000002 646.4379589891902 L 101.6955310108203 646.4379589891902 L 101.6955310108203 646.4379589891902 A 14.70168297 14.70168297 0 0 1 116.39721398082031 661.1396419591902 L 116.39721398082031 685.6424469091902 L 116.39721398082031 685.6424469091902 A 14.70168297 14.70168297 0 0 1 101.6955310108203 700.3441298791902 L 22.869284620000002 700.3441298791902 L 22.869284620000002 700.3441298791902 A 14.70168297 14.70168297 0 0 1 8.167601650000002 685.6424469091902 L 8.16760165 661.1396419591902" stroke-miterlimit="10" stroke-width="1.3612669416666667" stroke-dasharray=""/><g><text fill="black" stroke="none" font-family="sans-serif" font-size="11pt" font-style="normal" font-weight="normal" text-decoration="normal" x="31.036886270000004" y="669.3072436091902" text-anchor="start" dominant-baseline="alphabetic">Renders</text><text fill="black" stroke="none" font-family="sans-serif" font-size="11pt" font-style="normal" font-weight="normal" text-decoration="normal" x="31.036886270000004" y="685.6424469091902" text-anchor="start" dominant-baseline="alphabetic">Webpage</text></g><g><g><rect fill="white" stroke="none" x="120.30959534752604" y="724.8469348291901" width="168.68724311890625" height="21.23576429"/></g><text fill="black" stroke="none" font-family="sans-serif" font-size="11pt" font-style="normal" font-weight="normal" text-decoration="normal" x="122.75987584252604" y="739.5486177991901" text-anchor="start" dominant-baseline="alphabetic">HTTP/1.1 404 Not Found</text></g><g><path fill="none" stroke="black" paint-order="fill stroke markers" d=" M 347.0240259985482 739.1436942656264 L 65.0049416987435 771.5017254232224" stroke-miterlimit="10" stroke-width="1.3612669416666667" stroke-dasharray=""/><g transform="translate(62.28240781541016,771.8141008656264) rotate(-6.54532535092245,0,0) translate(-62.28240781541016,-771.8141008656264)"><path fill="black" stroke="none" paint-order="stroke fill markers" d=" M 75.89507723207683 765.0077661572931 L 62.28240781541016 771.8141008656264 L 75.89507723207683 778.6204355739598 Z"/><g transform="rotate(6.54532535092245,0,0)"/></g></g><path fill="white" stroke="black" paint-order="fill stroke markers" d=" M 8.16760165 811.0185887856264 L 8.167601650000002 811.0185887856264 A 14.70168297 14.70168297 0 0 1 22.869284620000002 796.3169058156265 L 101.6955310108203 796.3169058156265 L 101.6955310108203 796.3169058156265 A 14.70168297 14.70168297 0 0 1 116.39721398082031 811.0185887856264 L 116.39721398082031 835.5213937356265 L 116.39721398082031 835.5213937356265 A 14.70168297 14.70168297 0 0 1 101.6955310108203 850.2230767056265 L 22.869284620000002 850.2230767056265 L 22.869284620000002 850.2230767056265 A 14.70168297 14.70168297 0 0 1 8.167601650000002 835.5213937356265 L 8.16760165 811.0185887856264" stroke-miterlimit="10" stroke-width="1.3612669416666667" stroke-dasharray=""/><g><text fill="black" stroke="none" font-family="sans-serif" font-size="11pt" font-style="normal" font-weight="normal" text-decoration="normal" x="31.036886270000004" y="819.1861904356265" text-anchor="start" dominant-baseline="alphabetic">Renders</text><text fill="black" stroke="none" font-family="sans-serif" font-size="11pt" font-style="normal" font-weight="normal" text-decoration="normal" x="31.036886270000004" y="835.5213937356265" text-anchor="start" dominant-baseline="alphabetic">Webpage</text></g></g><g/><g/></g></svg>